<?xml version="1.0" standalone="no"?><!DOCTYPE svg PUBLIC "-//W3C//DTD SVG 1.1//EN" "http://www.w3.org/Graphics/SVG/1.1/DTD/svg11.dtd"><svg t="1675071872441" class="icon" viewBox="0 0 1024 1024" version="1.1" xmlns="http://www.w3.org/2000/svg" p-id="2581" xmlns:xlink="http://www.w3.org/1999/xlink" width="200" height="200"><path d="M896 930.133333H128c-42.666667 0-76.8-34.133333-76.8-76.8V256C51.2 213.333333 85.333333 183.466667 128 183.466667h768c42.666667 0 76.8 34.133333 76.8 76.8v597.333333c0 38.4-34.133333 72.533333-76.8 72.533333zM128 247.466667c-4.266667 0-8.533333 4.266667-8.533333 8.533333v597.333333c0 4.266667 4.266667 8.533333 8.533333 8.533334h768c4.266667 0 8.533333-4.266667 8.533333-8.533334V256c0-4.266667-4.266667-8.533333-8.533333-8.533333H128z" fill="#13227a" p-id="2582"></path><path d="M640 226.133333c-17.066667 0-34.133333-12.8-34.133333-34.133333 0-29.866667-25.6-51.2-51.2-51.2h-85.333334c-29.866667 0-51.2 25.6-51.2 51.2 0 17.066667-12.8 34.133333-34.133333 34.133333s-34.133333-17.066667-34.133333-34.133333C349.866667 128 405.333333 76.8 469.333333 76.8h85.333334c64 0 119.466667 51.2 119.466666 119.466667 0 12.8-17.066667 29.866667-34.133333 29.866666z" fill="#13227a" p-id="2583"></path><path d="M588.8 426.666667h234.666667c17.066667 0 34.133333 12.8 34.133333 34.133333 0 17.066667-12.8 34.133333-34.133333 34.133333h-234.666667c-17.066667 0-34.133333-12.8-34.133333-34.133333s12.8-34.133333 34.133333-34.133333zM588.8 618.666667h149.333333c17.066667 0 34.133333 12.8 34.133334 34.133333 0 17.066667-12.8 34.133333-34.133334 34.133333h-149.333333c-17.066667 0-34.133333-12.8-34.133333-34.133333s12.8-34.133333 34.133333-34.133333z" fill="#13227a" p-id="2584"></path><path d="M341.333333 631.466667c-76.8 0-136.533333-64-136.533333-136.533334S264.533333 354.133333 341.333333 354.133333s136.533333 64 136.533334 136.533334-59.733333 140.8-136.533334 140.8z m0-213.333334c-42.666667 0-76.8 34.133333-76.8 76.8S298.666667 567.466667 341.333333 567.466667s76.8-34.133333 76.8-76.8S384 418.133333 341.333333 418.133333z" fill="#13227a" p-id="2585"></path><path d="M490.666667 780.8c-17.066667 0-34.133333-12.8-34.133334-34.133333 0-64-51.2-115.2-119.466666-115.2S221.866667 682.666667 221.866667 746.666667c0 17.066667-12.8 34.133333-34.133334 34.133333s-34.133333-12.8-34.133333-34.133333c0-98.133333 81.066667-179.2 179.2-179.2s179.2 81.066667 179.2 179.2c8.533333 17.066667-4.266667 34.133333-21.333333 34.133333z" fill="#13227a" p-id="2586"></path></svg>