<?xml version="1.0" standalone="no"?><!DOCTYPE svg PUBLIC "-//W3C//DTD SVG 1.1//EN" "http://www.w3.org/Graphics/SVG/1.1/DTD/svg11.dtd"><svg t="1675071633992" class="icon" viewBox="0 0 1024 1024" version="1.1" xmlns="http://www.w3.org/2000/svg" p-id="2117" xmlns:xlink="http://www.w3.org/1999/xlink" width="200" height="200"><path d="M890.88 535.22944h-124.416a257.62816 257.62816 0 0 0-164.6592-173.97248 152.704 152.704 0 1 0-168.96 0.27136 261.05856 261.05856 0 0 0-165.0432 173.70112H143.36v59.9808h51.16416v248.87296A98.176 98.176 0 0 0 292.65408 942.08h448.93184a98.176 98.176 0 0 0 98.12992-97.9968v-248.87296H890.88v-59.9808z m-373.76-393.32864a92.52864 92.52864 0 1 1-92.64128 92.52864A92.672 92.672 0 0 1 517.12 141.9008z m0 265.28768a198.28736 198.28736 0 0 1 186.17856 128.04096h-372.224A200.62208 200.62208 0 0 1 517.12 407.18848z m262.53824 436.89472a38.08768 38.08768 0 0 1-38.07232 38.016H292.65408a38.08768 38.08768 0 0 1-38.0672-38.016v-248.87296h525.07136v248.87296z" fill="#f2c512" p-id="2118"></path><path d="M620.09856 713.11872h-72.92928v-72.84224H487.08096v72.84224H414.14144V773.12h72.93952v72.83712h60.08832V773.12h72.92928v-60.0064z" fill="#f2c512" p-id="2119"></path></svg>