<?xml version="1.0" standalone="no"?><!DOCTYPE svg PUBLIC "-//W3C//DTD SVG 1.1//EN" "http://www.w3.org/Graphics/SVG/1.1/DTD/svg11.dtd"><svg t="1675072341807" class="icon" viewBox="0 0 1024 1024" version="1.1" xmlns="http://www.w3.org/2000/svg" p-id="1299" xmlns:xlink="http://www.w3.org/1999/xlink" width="200" height="200"><path d="M512 68.266667c245.077333 0 443.733333 198.656 443.733333 443.733333 0 127.368533-53.998933 246.101333-146.773333 329.728a34.133333 34.133333 0 1 1-45.704533-50.722133A374.340267 374.340267 0 0 0 887.466667 512c0-207.36-168.106667-375.466667-375.466667-375.466667S136.533333 304.64 136.533333 512c0 107.8272 45.636267 208.213333 124.194134 279.005867a34.133333 34.133333 0 0 1-45.7216 50.722133A442.624 442.624 0 0 1 68.283733 512C68.266667 266.922667 266.922667 68.266667 512 68.266667z" fill="#3592ff" p-id="1300"></path><path d="M682.666667 512H341.333333c-37.632 0-68.266667 30.634667-68.266666 68.266667v68.266666c0 37.632 30.634667 68.266667 68.266666 68.266667h341.333334c37.632 0 68.266667-30.634667 68.266666-68.266667v-68.266666c0-37.632-30.634667-68.266667-68.266666-68.266667z m-341.333334 68.266667h341.333334v68.266666H341.333333v-68.266666z" fill="#3592ff" p-id="1301"></path><path d="M631.466667 648.533333H392.533333c-37.632 0-68.266667 30.634667-68.266666 68.266667v170.666667c0 37.632 30.634667 68.266667 68.266666 68.266666h238.933334c37.632 0 68.266667-30.634667 68.266666-68.266666V716.8c0-37.632-30.634667-68.266667-68.266666-68.266667z m-238.933334 68.266667h238.933334v170.666667H392.533333V716.8z" fill="#3592ff" p-id="1302"></path><path d="M512 217.002667a272.896 272.896 0 0 1 233.352533 131.191466l3.140267 5.290667-59.0848 34.2016a204.680533 204.680533 0 0 0-177.408-102.4 204.6464 204.6464 0 0 0-174.011733 96.733867l-2.935467 4.881066-58.9312-34.474666A272.9472 272.9472 0 0 1 512 217.019733z" fill="#3592ff" p-id="1303"></path></svg>